<?xml version="1.0" standalone="no"?>
<!DOCTYPE svg PUBLIC "-//W3C//DTD SVG 20010904//EN"
 "http://www.w3.org/TR/2001/REC-SVG-20010904/DTD/svg10.dtd">
<svg version="1.0" xmlns="http://www.w3.org/2000/svg"
 width="86.000000pt" height="86.000000pt" viewBox="0 0 86.000000 86.000000"
 preserveAspectRatio="xMidYMid meet">
<metadata>
Created by potrace 1.11, written by Peter Selinger 2001-2013
</metadata>
<g transform="translate(0.000000,86.000000) scale(0.100000,-0.100000)"
fill="#000000" stroke="none">
<path d="M300 754 c-25 -9 -68 -33 -96 -54 -170 -127 -189 -384 -39 -533 34
-33 39 -33 58 -3 15 22 14 25 -12 50 -30 28 -65 93 -76 139 -6 22 -4 27 11 28
23 1 118 1 157 0 l27 -1 0 -154 0 -154 31 -7 c17 -4 32 -5 34 -3 6 6 8 152 6
446 l-2 262 -27 0 c-15 -1 -47 -8 -72 -16z m30 -184 l0 -120 -101 0 -101 0 7
31 c13 58 33 94 77 136 39 38 92 73 111 73 4 0 7 -54 7 -120z"/>
<path d="M460 416 c0 -403 -8 -369 85 -341 141 43 240 169 250 317 l4 58 -80
0 c-43 0 -79 -3 -80 -7 -5 -37 -5 -62 0 -61 3 0 25 0 49 -1 41 -1 42 -2 36
-28 -13 -54 -39 -99 -86 -144 -49 -48 -108 -79 -108 -56 -3 99 2 532 6 536 11
11 79 -37 123 -86 44 -50 46 -51 73 -37 33 17 31 26 -31 95 -46 53 -132 99
-197 107 l-44 5 0 -357z"/>
</g>
</svg>
