<?xml version="1.0" standalone="no"?>
<!DOCTYPE svg PUBLIC "-//W3C//DTD SVG 20010904//EN"
 "http://www.w3.org/TR/2001/REC-SVG-20010904/DTD/svg10.dtd">
<svg version="1.0" xmlns="http://www.w3.org/2000/svg"
 width="400.000000pt" height="400.000000pt" viewBox="0 0 400.000000 400.000000"
 preserveAspectRatio="xMidYMid meet">
<metadata>
Created by potrace 1.14, written by Peter Selinger 2001-2017
</metadata>
<g transform="translate(0.000000,400.000000) scale(0.100000,-0.100000)"
fill="#000000" stroke="none">
<path d="M1048 2573 c-282 -637 -365 -829 -372 -849 -6 -21 -4 -21 78 -20 47
1 87 4 89 7 2 2 30 65 61 140 l58 136 304 -1 304 -1 19 -40 c10 -22 31 -69 46
-105 15 -36 37 -83 48 -105 15 -30 21 -62 23 -126 4 -177 74 -328 206 -443 29
-25 59 -44 66 -41 7 3 10 0 7 -5 -6 -10 107 -68 148 -76 10 -2 26 -5 35 -8 55
-17 155 -22 227 -12 56 8 177 44 189 56 5 5 16 10 23 10 8 0 42 18 78 41 l64
40 3 152 c2 84 2 182 0 218 l-3 66 -59 2 c-37 1 -62 -3 -66 -11 -11 -18 -12
-128 -1 -128 6 0 6 -5 0 -12 -5 -7 -9 -55 -8 -106 1 -92 0 -94 -27 -110 -15
-9 -28 -21 -28 -26 0 -5 -3 -7 -6 -4 -3 3 -31 -3 -62 -14 -75 -27 -96 -30
-167 -30 -105 1 -160 15 -236 62 -68 41 -80 51 -120 100 -148 178 -137 450 25
614 29 30 72 64 97 77 152 81 369 71 508 -24 25 -17 48 -34 49 -39 6 -14 20
-9 41 14 11 11 18 26 14 31 -3 6 -1 7 4 4 6 -4 18 5 28 19 13 20 14 28 5 40
-7 7 -16 11 -21 8 -5 -3 -8 -1 -7 4 3 9 -65 62 -79 62 -3 0 -24 9 -47 19 -103
48 -266 69 -378 48 -90 -17 -242 -82 -231 -100 3 -5 2 -7 -4 -4 -19 12 -93
-53 -157 -137 l-36 -48 -19 44 c-47 109 -380 866 -392 891 -12 26 -14 27 -99
27 l-87 0 -135 -307z m333 -141 c116 -267 122 -282 117 -288 -5 -4 -228 -7
-400 -5 -60 1 -67 3 -61 19 3 9 55 133 116 276 107 250 111 257 124 232 8 -15
54 -120 104 -234z"/>
<path d="M3362 2602 c-25 -3 -35 -10 -43 -29 -5 -15 -8 -32 -5 -40 3 -7 2 -13
-3 -13 -5 0 -12 -15 -16 -32 -4 -18 -9 -35 -10 -38 -1 -3 -4 -12 -8 -20 -3 -8
-25 -76 -47 -150 -23 -74 -44 -142 -47 -150 -3 -8 -8 -21 -10 -27 -1 -7 -5
-19 -6 -25 -2 -7 -7 -20 -10 -28 -4 -8 -8 -24 -10 -35 -2 -11 -9 -31 -15 -45
-8 -19 -56 -169 -67 -210 -1 -3 -11 -36 -23 -73 -12 -38 -19 -74 -15 -80 3 -6
1 -7 -5 -3 -7 4 -12 1 -12 -7 0 -8 -13 -53 -29 -100 l-29 -87 29 -1 c16 -1 49
-1 74 -1 25 0 54 0 65 1 16 1 27 26 66 148 25 81 47 152 48 158 1 5 7 24 13
40 6 17 46 143 88 280 93 304 90 295 116 375 24 75 30 97 34 125 1 11 6 28 10
38 4 10 5 21 1 24 -7 7 -84 10 -134 5z"/>
<path d="M389 2302 c-57 -38 -73 -48 -167 -105 -30 -18 -66 -40 -80 -49 -15
-10 -52 -32 -83 -50 l-57 -33 0 -97 0 -97 42 27 c22 15 43 30 44 35 2 4 8 5
13 1 5 -3 12 2 15 10 3 9 11 16 18 16 20 1 186 116 179 125 -5 4 -3 5 4 1 7
-4 43 14 82 41 l71 48 0 83 c0 59 -3 82 -12 81 -7 0 -38 -17 -69 -37z"/>
<path d="M3529 2308 c-3 -109 2 -133 29 -155 15 -13 32 -23 39 -23 6 0 13 -3
15 -8 3 -8 224 -152 233 -152 3 0 15 -9 27 -20 12 -11 28 -20 35 -20 7 0 13
-4 13 -10 0 -5 5 -10 11 -10 6 0 17 -7 26 -15 28 -29 38 -11 41 77 l3 85 -74
47 c-41 25 -79 46 -85 46 -6 0 -12 4 -14 8 -3 9 -214 142 -224 142 -3 0 -17 9
-31 20 -35 27 -43 25 -44 -12z"/>
<path d="M245 1830 c-27 -21 -51 -43 -53 -48 -2 -6 19 -23 45 -40 26 -17 88
-58 136 -91 49 -34 92 -61 97 -61 4 0 8 40 9 89 l2 89 -65 41 c-35 22 -67 45
-71 51 -12 20 -51 8 -100 -30z"/>
<path d="M3594 1819 l-72 -48 1 -91 c0 -71 3 -90 14 -86 39 15 222 149 217
158 -5 7 -2 8 5 3 8 -4 21 2 33 15 19 21 19 22 2 35 -11 8 -22 15 -25 15 -3 0
-18 11 -34 24 -15 13 -37 23 -49 23 -11 0 -53 -21 -92 -48z"/>
</g>
</svg>
