<svg id="svg" version="1.1" xmlns="http://www.w3.org/2000/svg" xmlns:xlink="http://www.w3.org/1999/xlink" width="400" height="400" viewBox="0, 0, 400,400"><g id="svgg"><path id="path0" d="M332.799 140.100 C 332.798 140.375,331.889 143.480,330.780 147.000 C 329.670 150.520,327.860 156.280,326.758 159.800 C 325.656 163.320,324.508 166.920,324.207 167.800 C 323.907 168.680,322.824 172.100,321.802 175.400 C 320.780 178.700,319.787 181.850,319.594 182.400 C 319.402 182.950,318.411 186.100,317.391 189.400 C 316.371 192.700,315.291 196.120,314.991 197.000 C 314.691 197.880,313.605 201.300,312.577 204.600 C 311.549 207.900,310.298 211.860,309.797 213.400 C 309.295 214.940,308.044 218.900,307.018 222.200 C 305.991 225.500,304.992 228.650,304.798 229.200 C 304.604 229.750,303.615 232.900,302.601 236.200 C 301.587 239.500,300.511 242.920,300.209 243.800 C 299.907 244.680,298.810 248.100,297.770 251.400 C 296.730 254.700,295.689 257.707,295.455 258.082 C 294.716 259.268,295.476 259.397,303.933 259.526 C 314.583 259.689,313.781 260.069,315.629 253.968 C 316.456 251.236,317.703 247.200,318.399 245.000 C 319.096 242.800,320.362 238.750,321.213 236.000 C 322.063 233.250,323.325 229.200,324.016 227.000 C 324.708 224.800,325.510 222.190,325.800 221.200 C 326.090 220.210,326.892 217.600,327.584 215.400 C 328.275 213.200,329.542 209.150,330.400 206.400 C 331.258 203.650,332.522 199.600,333.210 197.400 C 333.898 195.200,334.878 192.050,335.388 190.400 C 335.897 188.750,337.164 184.700,338.203 181.400 C 339.241 178.100,340.328 174.590,340.619 173.600 C 340.909 172.610,341.698 170.045,342.373 167.900 C 349.123 146.444,349.590 144.774,349.595 142.100 L 349.600 139.600 341.200 139.600 C 334.747 139.600,332.800 139.716,332.799 140.100 M40.400 168.932 C 28.786 176.163,10.868 187.227,5.514 190.473 L 0.027 193.800 0.014 203.300 C 0.006 208.525,0.135 212.800,0.300 212.799 C 0.465 212.799,1.595 212.124,2.811 211.299 C 4.027 210.475,6.721 208.720,8.798 207.400 C 10.875 206.080,14.235 203.920,16.264 202.600 C 18.292 201.280,20.998 199.546,22.276 198.746 C 30.731 193.454,45.553 183.797,46.322 183.080 C 47.326 182.143,47.575 166.553,46.600 165.680 C 46.353 165.458,43.984 166.701,40.400 168.932 M353.067 165.867 C 352.381 166.553,352.782 182.660,353.500 183.281 C 353.885 183.614,357.530 186.010,361.600 188.607 C 365.670 191.204,370.710 194.434,372.800 195.785 C 374.890 197.135,377.998 199.131,379.707 200.220 C 381.416 201.309,384.746 203.463,387.107 205.007 C 393.434 209.144,398.518 212.317,399.306 212.619 C 399.953 212.868,399.999 212.239,399.980 203.343 L 399.961 193.800 398.234 192.944 C 397.285 192.473,395.269 191.282,393.754 190.297 C 390.790 188.371,380.636 182.096,365.600 172.899 C 360.430 169.737,355.712 166.802,355.116 166.375 C 353.965 165.552,353.497 165.436,353.067 165.867 M225.166 178.567 C 225.074 178.659,223.469 178.939,221.599 179.189 C 217.872 179.688,217.683 179.735,211.600 181.648 C 178.191 192.158,161.280 229.429,175.182 261.911 C 181.907 277.623,195.905 290.347,211.800 295.197 C 215.697 296.386,218.879 297.153,220.800 297.366 C 221.790 297.476,223.860 297.748,225.400 297.970 C 228.982 298.487,233.492 298.493,236.800 297.985 C 238.230 297.765,240.660 297.415,242.200 297.207 C 245.164 296.807,247.696 296.220,250.000 295.401 C 250.770 295.127,252.390 294.595,253.600 294.218 C 259.679 292.323,270.219 286.706,273.975 283.359 L 275.200 282.268 275.200 260.734 L 275.200 239.200 268.404 239.200 L 261.608 239.200 261.504 256.681 L 261.400 274.162 259.800 275.249 C 257.408 276.876,251.971 279.483,248.800 280.524 C 242.972 282.439,239.635 283.125,234.755 283.412 C 229.496 283.722,220.103 282.622,219.020 281.569 C 218.811 281.366,218.322 281.200,217.934 281.200 C 216.535 281.200,209.684 277.841,206.202 275.448 C 177.019 255.392,180.569 210.961,212.534 196.192 C 228.687 188.729,250.537 191.688,263.618 203.111 C 267.056 206.113,266.384 206.418,271.800 199.396 C 273.120 197.684,274.425 196.053,274.700 195.771 C 276.607 193.812,267.718 187.381,257.600 183.400 C 256.610 183.010,255.233 182.446,254.540 182.146 C 253.846 181.846,253.060 181.600,252.793 181.600 C 252.526 181.600,251.473 181.339,250.454 181.020 C 244.666 179.209,238.797 178.400,231.441 178.400 C 228.082 178.400,225.258 178.475,225.166 178.567 M29.000 213.752 C 16.935 222.096,17.358 221.478,21.693 224.423 C 23.072 225.360,25.550 227.057,27.200 228.194 C 28.850 229.332,32.810 232.031,36.000 234.193 C 39.190 236.354,42.648 238.735,43.684 239.484 C 44.721 240.233,46.071 240.880,46.684 240.923 L 47.800 241.000 47.907 232.164 L 48.015 223.328 44.307 220.794 C 38.453 216.793,32.237 212.585,31.800 212.328 C 31.580 212.198,30.320 212.839,29.000 213.752 M361.175 216.848 C 357.559 219.295,354.012 221.736,353.292 222.274 L 351.985 223.252 352.092 232.126 L 352.200 241.000 353.131 240.899 C 353.642 240.844,357.285 238.594,361.225 235.899 C 365.165 233.205,371.178 229.110,374.587 226.800 C 380.117 223.052,382.036 221.279,380.950 220.917 C 380.582 220.794,371.999 214.687,370.143 213.227 C 368.532 211.959,368.207 212.091,361.175 216.848 " stroke="none" fill="#000000DE" fill-rule="evenodd"></path><path id="path1" d="M0.000 96.843 C 0.000 179.218,0.083 193.654,0.554 193.473 C 0.859 193.356,3.964 191.479,7.454 189.303 C 10.944 187.127,17.400 183.125,21.800 180.411 C 26.200 177.696,30.430 175.072,31.200 174.578 C 37.114 170.790,46.565 165.232,46.761 165.426 C 47.067 165.732,47.319 181.071,47.036 182.201 C 46.918 182.668,45.962 183.602,44.911 184.276 C 43.860 184.949,39.130 187.977,34.400 191.003 C 29.670 194.030,23.640 197.907,21.000 199.618 C 18.360 201.329,14.670 203.714,12.800 204.918 C 10.930 206.121,7.537 208.310,5.260 209.781 C 2.984 211.252,0.869 212.552,0.560 212.671 C 0.082 212.854,0.000 226.581,0.000 306.443 L 0.000 400.000 200.000 400.000 L 400.000 400.000 400.000 306.447 C 400.000 217.686,399.964 212.884,399.300 212.706 C 398.915 212.604,395.900 210.761,392.600 208.611 C 382.506 202.035,375.697 197.652,360.800 188.140 C 357.170 185.822,353.885 183.644,353.500 183.301 C 352.876 182.744,352.800 181.778,352.800 174.418 C 352.800 165.367,352.949 164.725,354.753 165.987 C 356.395 167.135,360.776 169.879,368.800 174.784 C 372.870 177.272,377.370 180.060,378.800 180.979 C 380.230 181.898,384.910 184.783,389.200 187.390 C 393.490 189.996,397.270 192.348,397.600 192.617 C 397.930 192.886,398.605 193.229,399.100 193.380 L 400.000 193.654 400.000 96.827 L 400.000 0.000 200.000 0.000 L 0.000 0.000 0.000 96.843 M138.491 118.400 C 140.003 121.810,141.975 126.310,142.871 128.400 C 143.768 130.490,144.996 133.280,145.600 134.600 C 146.204 135.920,147.464 138.800,148.399 141.000 C 149.335 143.200,151.265 147.610,152.688 150.800 C 154.112 153.990,155.516 157.140,155.808 157.800 C 156.101 158.460,156.803 160.039,157.369 161.310 C 157.935 162.580,158.869 164.740,159.445 166.110 C 160.476 168.562,160.716 169.105,163.167 174.528 C 163.845 176.028,164.400 177.329,164.400 177.419 C 164.400 177.509,165.009 178.891,165.754 180.491 C 166.499 182.091,168.044 185.560,169.187 188.200 C 170.330 190.840,171.508 193.540,171.804 194.200 C 173.722 198.475,176.647 205.214,177.225 206.692 C 177.756 208.049,178.494 207.495,181.258 203.665 C 189.076 192.834,200.774 184.588,213.400 181.007 C 214.720 180.633,216.357 180.161,217.038 179.960 C 221.961 178.502,236.948 178.124,243.200 179.299 C 249.674 180.516,254.160 181.719,254.980 182.458 C 255.189 182.646,255.701 182.800,256.118 182.800 C 256.535 182.800,257.354 183.054,257.938 183.365 C 258.522 183.676,260.564 184.680,262.475 185.595 C 269.759 189.084,276.092 193.862,275.146 195.155 C 274.150 196.516,268.442 203.784,267.609 204.750 L 266.790 205.701 264.695 204.020 C 260.424 200.594,252.024 195.600,250.531 195.600 C 250.416 195.600,249.754 195.358,249.060 195.062 C 242.547 192.282,230.194 191.056,224.265 192.600 C 222.998 192.930,221.475 193.206,220.880 193.214 C 220.286 193.222,219.350 193.486,218.800 193.800 C 218.250 194.114,217.474 194.378,217.076 194.386 C 216.010 194.407,209.793 197.453,206.800 199.421 C 178.597 217.967,179.665 259.439,208.800 277.062 C 216.904 281.964,227.390 284.273,236.800 283.227 C 241.073 282.752,248.287 281.064,248.980 280.377 C 249.189 280.170,249.619 280.000,249.935 280.000 C 250.748 280.000,259.175 275.863,260.500 274.813 L 261.600 273.942 261.600 256.614 C 261.600 241.182,261.669 239.259,262.233 239.043 C 263.051 238.729,273.122 238.736,274.300 239.052 L 275.200 239.293 275.200 260.815 L 275.200 282.338 273.511 283.784 C 272.064 285.022,263.548 290.400,263.033 290.400 C 262.811 290.400,257.646 292.700,256.705 293.218 C 256.323 293.428,255.811 293.600,255.566 293.600 C 255.321 293.600,254.554 293.842,253.860 294.138 C 251.342 295.213,244.277 297.060,241.400 297.395 C 240.300 297.523,238.410 297.789,237.200 297.985 C 234.209 298.470,228.359 298.470,225.200 297.985 C 223.770 297.765,221.700 297.489,220.600 297.372 C 216.126 296.895,207.184 293.884,202.046 291.126 C 196.849 288.336,188.904 282.329,186.200 279.144 C 174.767 265.684,170.143 253.231,170.467 236.777 C 170.571 231.473,170.487 229.965,170.077 229.808 C 169.789 229.697,169.005 228.390,168.334 226.904 C 167.664 225.417,166.774 223.445,166.358 222.522 C 165.941 221.599,165.600 220.755,165.600 220.646 C 165.600 220.537,164.880 218.896,164.000 217.000 C 163.120 215.104,162.400 213.455,162.400 213.337 C 162.400 213.218,162.134 212.554,161.809 211.860 C 161.484 211.167,160.330 208.530,159.245 206.000 L 157.273 201.400 126.676 201.298 L 96.078 201.195 90.072 215.298 L 84.065 229.400 75.433 229.508 C 70.685 229.567,66.800 229.538,66.800 229.443 C 66.800 229.274,69.105 223.819,70.189 221.423 C 70.493 220.750,71.096 219.390,71.528 218.400 C 71.960 217.410,73.773 213.310,75.557 209.289 C 77.341 205.268,78.800 201.897,78.800 201.798 C 78.800 201.699,79.443 200.244,80.229 198.566 C 81.601 195.634,83.798 190.648,88.057 180.800 C 89.151 178.270,90.464 175.300,90.976 174.200 C 91.487 173.100,92.491 170.850,93.207 169.200 C 93.923 167.550,95.020 165.081,95.644 163.713 C 96.268 162.345,97.254 160.095,97.836 158.713 C 98.417 157.331,99.217 155.480,99.613 154.600 C 100.010 153.720,100.889 151.772,101.567 150.272 C 102.245 148.772,102.800 147.471,102.800 147.381 C 102.800 147.291,103.409 145.909,104.154 144.309 C 104.899 142.709,106.445 139.240,107.590 136.600 C 108.735 133.960,110.022 131.030,110.451 130.090 C 110.879 129.149,112.186 126.179,113.355 123.490 C 117.118 114.832,118.158 112.606,118.583 112.302 C 118.812 112.138,122.767 112.048,127.370 112.102 L 135.740 112.200 138.491 118.400 M125.204 133.100 C 124.685 134.365,123.779 136.480,123.190 137.800 C 122.600 139.120,121.608 141.460,120.985 143.000 C 120.361 144.540,119.708 145.994,119.534 146.232 C 119.359 146.469,118.780 147.819,118.249 149.232 C 117.717 150.644,116.803 152.880,116.218 154.200 C 114.857 157.271,114.583 157.897,113.857 159.600 C 113.528 160.370,112.777 162.080,112.187 163.400 C 111.597 164.720,110.765 166.700,110.339 167.800 C 109.913 168.900,109.315 170.340,109.012 171.000 C 106.325 176.848,102.826 185.490,102.982 185.896 C 103.206 186.481,149.401 186.641,150.317 186.059 C 150.721 185.804,150.559 185.121,149.585 182.966 C 147.247 177.795,146.900 177.001,143.997 170.200 C 142.401 166.460,140.603 162.320,140.000 161.000 C 139.397 159.680,137.599 155.540,136.003 151.800 C 134.407 148.060,132.779 144.280,132.386 143.400 C 131.993 142.520,131.002 140.270,130.184 138.400 C 126.351 129.638,126.541 129.840,125.204 133.100 M349.501 142.700 C 349.413 144.405,349.060 146.700,348.718 147.800 C 348.152 149.618,347.459 151.832,343.620 164.100 C 342.949 166.245,341.847 169.755,341.172 171.900 C 340.496 174.045,339.789 176.340,339.600 177.000 C 339.411 177.660,338.704 179.955,338.028 182.100 C 334.921 191.965,334.311 193.917,333.809 195.600 C 333.140 197.843,331.831 202.062,329.404 209.800 C 327.303 216.498,325.896 221.019,323.613 228.400 C 322.762 231.150,321.493 235.200,320.794 237.400 C 320.094 239.600,319.286 242.210,318.997 243.200 C 318.709 244.190,317.904 246.800,317.209 249.000 C 316.513 251.200,315.563 254.322,315.097 255.938 C 314.004 259.731,314.187 259.672,303.949 259.522 C 294.314 259.380,294.832 259.605,296.119 256.123 C 297.141 253.359,298.047 250.555,301.394 239.800 C 302.421 236.500,303.674 232.540,304.179 231.000 C 304.684 229.460,305.679 226.310,306.390 224.000 C 307.102 221.690,308.101 218.540,308.611 217.000 C 309.122 215.460,310.377 211.500,311.401 208.200 C 312.425 204.900,313.506 201.480,313.804 200.600 C 314.499 198.544,316.290 192.836,318.384 186.000 C 319.294 183.030,320.287 179.880,320.589 179.000 C 320.892 178.120,321.982 174.700,323.012 171.400 C 324.042 168.100,325.299 164.140,325.806 162.600 C 326.313 161.060,327.575 157.100,328.610 153.800 C 329.646 150.500,331.012 146.187,331.646 144.216 C 332.281 142.245,332.800 140.400,332.800 140.116 C 332.800 139.711,334.612 139.600,341.230 139.600 L 349.661 139.600 349.501 142.700 M40.600 218.151 L 47.800 223.089 47.800 232.039 C 47.800 242.987,48.291 242.596,40.868 237.567 C 14.537 219.731,16.940 222.005,21.318 219.063 C 22.903 217.998,25.808 215.985,27.773 214.590 C 31.989 211.597,30.403 211.157,40.600 218.151 M376.497 217.732 C 379.951 220.135,381.169 221.199,381.097 221.751 C 381.007 222.448,378.725 224.069,358.432 237.849 C 351.773 242.371,352.222 242.776,352.092 232.140 L 351.985 223.279 353.492 222.116 C 354.322 221.476,356.440 219.985,358.200 218.804 C 359.960 217.622,362.750 215.728,364.401 214.594 C 368.301 211.915,368.326 211.909,370.200 213.287 C 371.080 213.934,373.914 215.934,376.497 217.732 " stroke="none" fill="transparent" fill-rule="evenodd"></path><path id="path2" d="M118.583 112.302 C 118.158 112.606,117.118 114.832,113.355 123.490 C 112.186 126.179,110.879 129.149,110.451 130.090 C 110.022 131.030,108.735 133.960,107.590 136.600 C 106.445 139.240,104.899 142.709,104.154 144.309 C 103.409 145.909,102.800 147.291,102.800 147.381 C 102.800 147.471,102.245 148.772,101.567 150.272 C 100.889 151.772,100.010 153.720,99.613 154.600 C 99.217 155.480,98.417 157.331,97.836 158.713 C 97.254 160.095,96.268 162.345,95.644 163.713 C 95.020 165.081,93.923 167.550,93.207 169.200 C 92.491 170.850,91.487 173.100,90.976 174.200 C 90.464 175.300,89.151 178.270,88.057 180.800 C 83.798 190.648,81.601 195.634,80.229 198.566 C 79.443 200.244,78.800 201.699,78.800 201.798 C 78.800 201.897,77.341 205.268,75.557 209.289 C 73.773 213.310,71.960 217.410,71.528 218.400 C 71.096 219.390,70.493 220.750,70.189 221.423 C 69.105 223.819,66.800 229.274,66.800 229.443 C 66.800 229.538,70.685 229.567,75.433 229.508 L 84.065 229.400 90.072 215.298 L 96.078 201.195 126.676 201.298 L 157.273 201.400 159.245 206.000 C 160.330 208.530,161.484 211.167,161.809 211.860 C 162.134 212.554,162.400 213.218,162.400 213.337 C 162.400 213.455,163.120 215.104,164.000 217.000 C 164.880 218.896,165.600 220.537,165.600 220.646 C 165.600 220.755,165.941 221.599,166.358 222.522 C 166.774 223.445,167.652 225.391,168.308 226.846 C 169.938 230.461,171.176 230.935,171.194 227.951 C 171.214 224.556,174.518 214.870,177.348 209.910 C 178.635 207.654,178.906 206.929,178.352 207.226 C 177.731 207.558,177.527 207.465,177.234 206.716 C 176.650 205.221,173.739 198.513,171.804 194.200 C 171.508 193.540,170.330 190.840,169.187 188.200 C 168.044 185.560,166.499 182.091,165.754 180.491 C 165.009 178.891,164.400 177.509,164.400 177.419 C 164.400 177.329,163.845 176.028,163.167 174.528 C 160.716 169.105,160.476 168.562,159.445 166.110 C 158.869 164.740,157.935 162.580,157.369 161.310 C 156.803 160.039,156.101 158.460,155.808 157.800 C 155.516 157.140,154.112 153.990,152.688 150.800 C 151.265 147.610,149.335 143.200,148.399 141.000 C 147.464 138.800,146.204 135.920,145.600 134.600 C 144.996 133.280,143.768 130.490,142.871 128.400 C 141.975 126.310,140.003 121.810,138.491 118.400 L 135.740 112.200 127.370 112.102 C 122.767 112.048,118.812 112.138,118.583 112.302 M127.719 132.900 C 128.257 134.055,129.366 136.530,130.184 138.400 C 131.002 140.270,131.993 142.520,132.386 143.400 C 132.779 144.280,134.407 148.060,136.003 151.800 C 137.599 155.540,139.397 159.680,140.000 161.000 C 140.603 162.320,142.401 166.460,143.997 170.200 C 146.900 177.001,147.247 177.795,149.585 182.966 C 150.559 185.121,150.721 185.804,150.317 186.059 C 149.401 186.641,103.206 186.481,102.982 185.896 C 102.826 185.490,106.325 176.848,109.012 171.000 C 109.315 170.340,109.913 168.900,110.339 167.800 C 110.765 166.700,111.597 164.720,112.187 163.400 C 112.777 162.080,113.528 160.370,113.857 159.600 C 114.583 157.897,114.857 157.271,116.218 154.200 C 116.803 152.880,117.717 150.644,118.249 149.232 C 118.780 147.819,119.359 146.469,119.534 146.232 C 119.708 145.994,120.361 144.540,120.985 143.000 C 121.608 141.460,122.600 139.120,123.190 137.800 C 123.779 136.480,124.685 134.365,125.204 133.100 C 126.359 130.283,126.496 130.272,127.719 132.900 M186.101 237.400 C 186.105 238.280,186.187 238.593,186.283 238.095 C 186.379 237.598,186.375 236.878,186.275 236.495 C 186.175 236.113,186.096 236.520,186.101 237.400 M265.318 239.098 C 267.033 239.173,269.733 239.172,271.318 239.097 C 272.903 239.021,271.500 238.959,268.200 238.960 C 264.900 238.961,263.603 239.022,265.318 239.098 " stroke="none" fill="#00e5ff" fill-rule="evenodd"></path></g></svg>